<svg width="145" height="25" viewBox="0 0 145 25" fill="none" xmlns="http://www.w3.org/2000/svg">
<path d="M44.912 7.752H41.648V17H39.456V7.752H36.176V5.8H44.912V7.752ZM46.9338 5.912C47.1791 5.86933 47.4404 5.832 47.7178 5.8C48.0058 5.75733 48.2884 5.72533 48.5658 5.704C48.8538 5.68267 49.1311 5.66667 49.3978 5.656C49.6644 5.64533 49.9098 5.64 50.1338 5.64C50.6564 5.64 51.1684 5.688 51.6698 5.784C52.1818 5.88 52.6351 6.04533 53.0298 6.28C53.4351 6.51467 53.7551 6.84 53.9898 7.256C54.2351 7.66133 54.3578 8.17333 54.3578 8.792C54.3578 9.70933 54.1444 10.456 53.7178 11.032C53.2911 11.608 52.7204 12.008 52.0058 12.232L52.7898 12.728L55.3498 17H52.8218L50.2778 12.616L49.1258 12.408V17H46.9338V5.912ZM50.2938 7.592C50.0698 7.592 49.8458 7.59733 49.6218 7.608C49.4084 7.61867 49.2431 7.64 49.1258 7.672V10.92H50.0538C50.6618 10.92 51.1471 10.7813 51.5098 10.504C51.8724 10.2267 52.0538 9.768 52.0538 9.128C52.0538 8.648 51.9044 8.27467 51.6058 8.008C51.3071 7.73067 50.8698 7.592 50.2938 7.592ZM62.365 14.52H58.925L58.077 17H55.885L59.917 5.72H61.533L65.565 17H63.261L62.365 14.52ZM59.485 12.76H61.885L61.053 10.264L60.717 8.504H60.637L60.301 10.28L59.485 12.76ZM69.9987 12.376L70.2867 14.28H70.3667L70.6867 12.36L72.8307 5.8H75.1347L70.9747 17.08H69.4067L65.2147 5.8H67.7587L69.9987 12.376ZM76.8238 5.8H83.4638V7.752H79.0158V10.36H83.0638V12.312H79.0158V15.048H83.5438V17H76.8238V5.8ZM93.1511 17H86.0631V5.8H88.2551V15.048H93.1511V17ZM103.025 11.16H107.201V16.152C106.753 16.5253 106.214 16.7973 105.585 16.968C104.966 17.1387 104.353 17.224 103.745 17.224C103.03 17.224 102.364 17.112 101.745 16.888C101.137 16.664 100.609 16.3173 100.161 15.848C99.7131 15.368 99.3611 14.76 99.1051 14.024C98.8491 13.288 98.7211 12.4133 98.7211 11.4C98.7211 10.344 98.8705 9.448 99.1691 8.712C99.4785 7.96533 99.8785 7.36267 100.369 6.904C100.87 6.43467 101.43 6.09867 102.049 5.896C102.668 5.68267 103.297 5.576 103.937 5.576C104.577 5.576 105.137 5.624 105.617 5.72C106.108 5.816 106.497 5.91733 106.785 6.024L106.337 7.864C106.07 7.75733 105.772 7.67733 105.441 7.624C105.11 7.56 104.689 7.528 104.177 7.528C103.718 7.528 103.297 7.59733 102.913 7.736C102.529 7.87467 102.193 8.104 101.905 8.424C101.628 8.73333 101.409 9.13333 101.249 9.624C101.1 10.1147 101.025 10.712 101.025 11.416C101.025 12.088 101.1 12.6693 101.249 13.16C101.398 13.64 101.606 14.04 101.873 14.36C102.14 14.6693 102.449 14.8987 102.801 15.048C103.164 15.1973 103.548 15.272 103.953 15.272C104.23 15.272 104.502 15.24 104.769 15.176C105.036 15.1013 105.26 14.9947 105.441 14.856V12.744L103.025 12.488V11.16ZM115.783 5.8H117.863V13.032C117.863 13.7573 117.767 14.3813 117.575 14.904C117.383 15.4267 117.116 15.8587 116.775 16.2C116.434 16.5413 116.018 16.792 115.527 16.952C115.036 17.112 114.498 17.192 113.911 17.192C111.074 17.192 109.655 15.896 109.655 13.304V5.8H111.847V12.872C111.847 13.3093 111.884 13.6827 111.959 13.992C112.044 14.2907 112.172 14.536 112.343 14.728C112.514 14.9093 112.727 15.0427 112.983 15.128C113.239 15.2027 113.538 15.24 113.879 15.24C114.551 15.24 115.036 15.0533 115.335 14.68C115.634 14.3067 115.783 13.704 115.783 12.872V5.8ZM120.838 5.8H123.03V17H120.838V5.8ZM126.057 5.8C126.281 5.768 126.532 5.74133 126.809 5.72C127.097 5.69867 127.39 5.68267 127.689 5.672C127.988 5.66133 128.276 5.656 128.553 5.656C128.841 5.64533 129.097 5.64 129.321 5.64C130.313 5.64 131.161 5.77867 131.865 6.056C132.569 6.33333 133.14 6.72267 133.577 7.224C134.014 7.72533 134.334 8.32267 134.537 9.016C134.74 9.70933 134.841 10.472 134.841 11.304C134.841 12.0613 134.745 12.792 134.553 13.496C134.361 14.2 134.041 14.824 133.593 15.368C133.145 15.912 132.553 16.3493 131.817 16.68C131.092 17.0107 130.19 17.176 129.113 17.176C128.942 17.176 128.713 17.1707 128.425 17.16C128.148 17.1493 127.854 17.1333 127.545 17.112C127.246 17.1013 126.958 17.0853 126.681 17.064C126.404 17.0533 126.196 17.0373 126.057 17.016V5.8ZM129.497 7.592C129.262 7.592 129.022 7.59733 128.777 7.608C128.542 7.61867 128.366 7.63467 128.249 7.656V15.16C128.292 15.1707 128.361 15.1813 128.457 15.192C128.564 15.192 128.676 15.1973 128.793 15.208C128.91 15.208 129.022 15.2133 129.129 15.224C129.236 15.224 129.316 15.224 129.369 15.224C129.988 15.224 130.5 15.1173 130.905 14.904C131.321 14.68 131.646 14.3867 131.881 14.024C132.126 13.6613 132.297 13.2453 132.393 12.776C132.489 12.296 132.537 11.8053 132.537 11.304C132.537 10.8667 132.494 10.4293 132.409 9.992C132.324 9.544 132.164 9.144 131.929 8.792C131.705 8.44 131.396 8.152 131.001 7.928C130.606 7.704 130.105 7.592 129.497 7.592ZM137.296 5.8H143.936V7.752H139.488V10.36H143.536V12.312H139.488V15.048H144.016V17H137.296V5.8Z" fill="white"/>
<g clip-path="url(#clip0_0_483)">
<path d="M24.2937 0.706067C23.3382 -0.249402 21.7842 -0.233435 20.8485 0.741516L15.7271 6.07828L3.22905 1.9422L0.605469 4.56583L11.023 10.9801L5.75176 16.473L2.37134 15.918L0 18.2894L4.96973 20.03L6.7104 24.9998L9.08174 22.6284L8.52676 19.248L14.0196 13.9768L20.4339 24.3943L23.0576 21.7707L18.9215 9.27257L24.2582 4.15123C25.2332 3.21559 25.2492 1.66158 24.2937 0.706067Z" fill="white"/>
</g>
<defs>
<clipPath id="clip0_0_483">
<rect width="25" height="25" fill="white"/>
</clipPath>
</defs>
</svg>
